<?xml version="1.0" encoding="UTF-8"?>
<svg xmlns="http://www.w3.org/2000/svg" viewBox="0 0 692.76 332.75">
  <defs>
    <style>.cls-1{fill:#036;}.cls-2{fill:#fff;}.cls-3{fill:none;stroke:#036;stroke-linecap:round;stroke-linejoin:round;stroke-width:3.05px;}</style>
  </defs>
  <g id="Layer_2" data-name="Layer 2">
    <g id="Layer_1-2" data-name="Layer 1">
      <path class="cls-1" d="M625.42,183.81h-2.8a.79.79,0,0,1-.8-.8.74.74,0,0,1,.8-.8h2.8a.8.8,0,1,1,0,1.6Zm-8.5,0h-2.8a.79.79,0,0,1-.8-.8.74.74,0,0,1,.8-.8h2.8a.8.8,0,1,1,0,1.6Zm-8.4,0h-2.8a.79.79,0,0,1-.8-.8.74.74,0,0,1,.8-.8h2.8a.8.8,0,1,1,0,1.6Zm-8.4,0h-2.8a.79.79,0,0,1-.8-.8.74.74,0,0,1,.8-.8h2.8a.8.8,0,0,1,0,1.6Zm-8.5,0h-2.8a.79.79,0,0,1-.8-.8.74.74,0,0,1,.8-.8h2.8a.8.8,0,0,1,0,1.6Zm-8.4,0h-2.8a.79.79,0,0,1-.8-.8.74.74,0,0,1,.8-.8h2.8a.8.8,0,0,1,0,1.6Zm-8.4,0H572a.79.79,0,0,1-.8-.8.74.74,0,0,1,.8-.8h2.8a.8.8,0,0,1,0,1.6Zm-8.5,0h-2.8a.79.79,0,0,1-.8-.8.74.74,0,0,1,.8-.8h2.8a.8.8,0,0,1,0,1.6Zm-8.4,0h-2.8a.79.79,0,0,1-.8-.8.74.74,0,0,1,.8-.8h2.8a.8.8,0,1,1,0,1.6Zm-8.4,0h-2.8a.79.79,0,0,1-.8-.8.74.74,0,0,1,.8-.8h2.8a.8.8,0,1,1,0,1.6Zm-1.3,100a.79.79,0,0,1-.8-.8v-2.8a.8.8,0,0,1,1.6,0V283a.79.79,0,0,1-.8.8Zm0-8.4a.79.79,0,0,1-.8-.8v-2.8a.8.8,0,0,1,1.6,0v2.8A.86.86,0,0,1,548.22,275.41Zm0-8.5a.79.79,0,0,1-.8-.8v-2.8a.8.8,0,0,1,1.6,0v2.8A.79.79,0,0,1,548.22,266.91Zm0-8.4a.79.79,0,0,1-.8-.8v-2.8a.8.8,0,1,1,1.6,0v2.8A.79.79,0,0,1,548.22,258.51Zm0-8.4a.79.79,0,0,1-.8-.8v-2.8a.8.8,0,1,1,1.6,0v2.8A.86.86,0,0,1,548.22,250.11Z"></path>
      <path class="cls-2" d="M378.12,192.41l-146.8-31,164-57.1,145.5,31.2Z"></path>
      <path class="cls-1" d="M378.12,193.91h-.3l-146.8-31a1.4,1.4,0,0,1-1.2-1.4,1.54,1.54,0,0,1,1-1.5l163.9-57a2.49,2.49,0,0,1,.8-.1L541,134.11a1.4,1.4,0,0,1,1.2,1.4,1.54,1.54,0,0,1-1,1.5l-162.7,56.9ZM237,161l141,29.8,157.2-54.9L395.42,106,237,161Z"></path>
      <path class="cls-1" d="M492,97.11a.79.79,0,0,1-.8-.8v-2.8a.79.79,0,0,1,.8-.8.74.74,0,0,1,.8.8v2.8A.74.74,0,0,1,492,97.11Zm0-8.4a.79.79,0,0,1-.8-.8v-2.8a.79.79,0,0,1,.8-.8.74.74,0,0,1,.8.8v2.8A.79.79,0,0,1,492,88.71Zm0-8.5a.79.79,0,0,1-.8-.8v-2.8a.79.79,0,0,1,.8-.8.74.74,0,0,1,.8.8v2.8A.74.74,0,0,1,492,80.21Zm-140.8-30.4a.79.79,0,0,1-.8-.8v-2.8a.79.79,0,0,1,.8-.8.74.74,0,0,1,.8.8V49A.86.86,0,0,1,351.22,49.81Zm0-8.5a.79.79,0,0,1-.8-.8v-2.8a.79.79,0,0,1,.8-.8.74.74,0,0,1,.8.8v2.8A.79.79,0,0,1,351.22,41.31Zm0-8.4a.79.79,0,0,1-.8-.8v-2.8a.79.79,0,0,1,.8-.8.74.74,0,0,1,.8.8v2.8A.79.79,0,0,1,351.22,32.91Zm0-8.4a.79.79,0,0,1-.8-.8v-2.8a.79.79,0,0,1,.8-.8.74.74,0,0,1,.8.8v2.8A.86.86,0,0,1,351.22,24.51Z"></path>
      <path class="cls-1" d="M358.32,5.11h4"></path>
      <path class="cls-2" d="M231.32,175.11v-13.7l146.8,31-.2,13.8Z"></path>
      <path class="cls-1" d="M377.92,207.71h-.3L231,176.61a1.59,1.59,0,0,1-1.2-1.5v-13.8a1.43,1.43,0,0,1,.6-1.2,1.52,1.52,0,0,1,1.3-.3l146.8,31a1.51,1.51,0,0,1,1.2,1.5l-.1,13.8a1.43,1.43,0,0,1-.6,1.2,1.67,1.67,0,0,1-1.1.4Zm-145.1-33.8,143.6,30.4.1-10.7-143.7-30.4Z"></path>
      <path class="cls-2" d="M540.72,149.31v-13.8l-162.6,56.9-.2,13.8Z"></path>
      <path class="cls-1" d="M377.92,207.71a1.5,1.5,0,0,1-1.5-1.6l.1-13.8a1.5,1.5,0,0,1,1-1.4l162.7-56.8a1.4,1.4,0,0,1,1.4.2,1.43,1.43,0,0,1,.6,1.2v13.7a1.5,1.5,0,0,1-1,1.4l-162.8,57A.75.75,0,0,1,377.92,207.71Zm1.7-14.2-.1,10.6,159.7-55.9v-10.5l-159.6,55.8Z"></path>
      <path class="cls-1" d="M217.22,267.81a.79.79,0,0,1-.8-.8v-2.8a.8.8,0,0,1,1.6,0V267c-.1.5-.4.8-.8.8Zm0-8.4a.79.79,0,0,1-.8-.8v-2.8a.8.8,0,0,1,1.6,0v2.8C217.92,259.11,217.62,259.41,217.22,259.41Zm0-8.4a.79.79,0,0,1-.8-.8v-2.8a.8.8,0,1,1,1.6,0v2.8C217.92,250.61,217.62,251,217.22,251Zm0-8.5a.79.79,0,0,1-.8-.8v-2.8a.8.8,0,1,1,1.6,0v2.8C217.92,242.21,217.62,242.51,217.22,242.51Zm0-8.4a.79.79,0,0,1-.8-.8v-2.8a.8.8,0,1,1,1.6,0v2.8C217.92,233.71,217.62,234.11,217.22,234.11Zm-64.3-59.2h-2.8a.79.79,0,0,1-.8-.8.74.74,0,0,1,.8-.8h2.8a.8.8,0,0,1,0,1.6Zm-8.4,0h-2.8a.79.79,0,0,1-.8-.8.74.74,0,0,1,.8-.8h2.8a.8.8,0,1,1,0,1.6Zm-8.5,0h-2.8a.79.79,0,0,1-.8-.8.74.74,0,0,1,.8-.8H136a.79.79,0,0,1,.8.8A.74.74,0,0,1,136,174.91Zm-8.4,0h-2.8a.79.79,0,0,1-.8-.8.74.74,0,0,1,.8-.8h2.8a.8.8,0,1,1,0,1.6Zm-8.4,0h-2.8a.79.79,0,0,1-.8-.8.74.74,0,0,1,.8-.8h2.8a.8.8,0,0,1,0,1.6Zm-8.5,0h-2.8a.79.79,0,0,1-.8-.8.74.74,0,0,1,.8-.8h2.8a.79.79,0,0,1,.8.8A.74.74,0,0,1,110.72,174.91Zm-8.4,0h-2.8a.79.79,0,0,1-.8-.8.74.74,0,0,1,.8-.8h2.8a.8.8,0,0,1,0,1.6Zm-8.4,0h-2.8a.79.79,0,0,1-.8-.8.74.74,0,0,1,.8-.8h2.8a.8.8,0,0,1,0,1.6Zm108.7-51.2a.79.79,0,0,1-.8-.8v-2.8a.79.79,0,0,1,.8-.8.74.74,0,0,1,.8.8v2.8C203.32,123.41,203,123.71,202.62,123.71Zm0-8.4a.79.79,0,0,1-.8-.8v-2.8a.79.79,0,0,1,.8-.8.74.74,0,0,1,.8.8v2.8C203.32,114.91,203,115.31,202.62,115.31Zm0-8.5a.79.79,0,0,1-.8-.8v-2.8a.79.79,0,0,1,.8-.8.74.74,0,0,1,.8.8V106c-.1.5-.4.8-.8.8Zm0-8.4a.79.79,0,0,1-.8-.8v-2.8a.79.79,0,0,1,.8-.8.74.74,0,0,1,.8.8v2.8C203.32,98,203,98.41,202.62,98.41Zm0-8.4a.79.79,0,0,1-.8-.8v-2.8a.79.79,0,0,1,.8-.8.74.74,0,0,1,.8.8v2.8c-.1.4-.4.8-.8.8Zm0-8.5a.79.79,0,0,1-.8-.8v-2.8a.79.79,0,0,1,.8-.8.74.74,0,0,1,.8.8v2.8C203.32,81.21,203,81.51,202.62,81.51Zm0-8.4a.79.79,0,0,1-.8-.8v-2.8a.79.79,0,0,1,.8-.8.74.74,0,0,1,.8.8v2.8C203.32,72.71,203,73.11,202.62,73.11Z"></path>
      <path class="cls-2" d="M308.62,159.91l-119-25.7,70.7-24.5,119,25.7Z"></path>
      <path class="cls-1" d="M308.62,161.41h-.3l-119-25.7a1.4,1.4,0,0,1-1.2-1.4,1.54,1.54,0,0,1,1-1.5l70.7-24.6a2.2,2.2,0,0,1,.8-.1l119,25.7a1.4,1.4,0,0,1,1.2,1.4,1.54,1.54,0,0,1-1,1.5l-70.7,24.6a.75.75,0,0,1-.5.1Zm-113.4-27.5,113.3,24.5,65.2-22.6-113.3-24.6-65.2,22.7Z"></path>
      <path class="cls-2" d="M287,128l3.8,10.4-23-3Z"></path>
      <path class="cls-1" d="M290.82,140h-.2l-22.9-3.1a1.5,1.5,0,0,1-.3-2.9l19.1-7.4a2.44,2.44,0,0,1,1.2,0,1.42,1.42,0,0,1,.8.9l3.8,10.5a1.6,1.6,0,0,1-.2,1.5,2.35,2.35,0,0,1-1.3.5Zm-16.9-5.4,14.6,2-2.4-6.7Z"></path>
      <path class="cls-2" d="M403.12,77.21V67.11L351.72,85v10.1Z"></path>
      <path class="cls-1" d="M351.72,96.61a1.61,1.61,0,0,1-.9-.3,1.43,1.43,0,0,1-.6-1.2V85a1.5,1.5,0,0,1,1-1.4l51.5-17.9a1.4,1.4,0,0,1,1.4.2,1.43,1.43,0,0,1,.6,1.2v10.1a1.5,1.5,0,0,1-1,1.4l-51.5,17.9A1.09,1.09,0,0,1,351.72,96.61Zm1.5-10.6v6.9l48.4-16.8v-6.9Z"></path>
      <path class="cls-2" d="M300.62,84.21V74.11L351.72,85v10.1Z"></path>
      <path class="cls-1" d="M351.72,96.61h-.3l-51.1-10.9a1.59,1.59,0,0,1-1.2-1.5V74.11a1.43,1.43,0,0,1,.6-1.2,1.52,1.52,0,0,1,1.3-.3l51.1,10.9a1.59,1.59,0,0,1,1.2,1.5v10.1a1.43,1.43,0,0,1-.6,1.2A1.89,1.89,0,0,1,351.72,96.61ZM302.12,83l48,10.2v-7l-48-10.2Z"></path>
      <path class="cls-1" d="M180.82,40.31h-2l-4.5-12.7h2l3.5,9.9,3.5-9.9h2Z"></path>
      <path id="I" class="cls-1" d="M188.72,29.51h-1.9v-1.9h1.9Zm0,10.8h-1.9v-9.4h1.9Z"></path>
      <path id="D" class="cls-1" d="M190.92,34.61a3.63,3.63,0,0,1,3.8-3.9,2.51,2.51,0,0,1,2.2,1.1v-4.2h1.9v12.7h-1.9v-.9a2.76,2.76,0,0,1-2.2,1.1,3.68,3.68,0,0,1-3.8-3.9Zm2,2a1.85,1.85,0,0,0,1.9,2.1,1.94,1.94,0,0,0,2.1-2.1v-2a2,2,0,1,0-4,0Z"></path>
      <path class="cls-1" d="M207,37.31h2a3.93,3.93,0,0,1-7.8-.7v-2a3.9,3.9,0,1,1,7.8,0v1.7h-6v.3a1.87,1.87,0,0,0,2,2.1A2,2,0,0,0,207,37.31Zm-4-2.7h4a1.79,1.79,0,0,0-2-2C203.82,32.51,203,33.21,203,34.61Z"></path>
      <path id="P" class="cls-1" d="M210.92,34.61a3.9,3.9,0,0,1,7.8,0v2a3.9,3.9,0,0,1-7.8,0Zm6,0a2,2,0,1,0-4,0v2a2,2,0,1,0,4,0Z"></path>
      <path id="H" class="cls-1" d="M220.42,37.31h2c.1.9,1,1.3,2.1,1.3.8,0,1.6-.2,1.6-1,0-.6-.6-.8-1.2-1l-1.8-.5a2.75,2.75,0,0,1-2.4-2.8c0-1.9,1.5-2.8,3.4-2.8s3.4.9,3.6,3h-2a1.56,1.56,0,0,0-1.7-1.2c-.6,0-1.4.2-1.4,1,0,.6.5.7,1.1.9l1.7.4c1.7.4,2.6,1.2,2.6,2.9,0,1.9-1.5,2.8-3.5,2.8-2.2.2-4-.8-4.1-3Z"></path>
      <path class="cls-1" d="M167,58.21h2a2.64,2.64,0,0,0,2.8,2.2c1.3,0,2.2-.6,2.2-1.6s-.5-1.5-1.8-1.8l-2.3-.5a3.33,3.33,0,0,1-2.6-3.6c0-2.5,1.9-3.6,4.1-3.6a4.06,4.06,0,0,1,4.4,3.6h-2a2.32,2.32,0,0,0-2.4-1.7c-1.5,0-2.2.7-2.2,1.7a1.65,1.65,0,0,0,1.4,1.7l2.2.5a3.61,3.61,0,0,1,3.1,3.8c0,2.1-1.5,3.5-4.2,3.5C168.72,62.31,167.22,60.51,167,58.21Zm12.5-2.6h-2a3.93,3.93,0,0,1,7.8.7V62h-1.9v-.8a3.61,3.61,0,0,1-2.8,1.1c-1.7,0-3.2-.9-3.2-2.8a2.78,2.78,0,0,1,2.1-2.8,20.69,20.69,0,0,1,4-.5h0a1.84,1.84,0,0,0-2-1.8A1.72,1.72,0,0,0,179.52,55.61Zm4,2.8v-.5a10,10,0,0,0-3.7.6,1,1,0,0,0-.5.9c0,.8.6,1.1,1.6,1.1,1.2-.1,2.6-.4,2.6-2.1Z"></path>
      <path id="B" class="cls-1" d="M189.72,62.11h-1.9v-9.4h1.9v.8a2.76,2.76,0,0,1,2.2-1.1,3.68,3.68,0,0,1,3.8,3.9V62h-1.9v-5.7a2,2,0,1,0-4,0v5.8Z"></path>
      <path id="I-2" data-name="I" class="cls-1" d="M200,51.31h-1.9v-1.9H200Zm0,10.8h-1.9v-9.4H200Z"></path>
      <path id="J" class="cls-1" d="M204.92,59.41c0,.7.1.9.9.9h1.4v1.8h-2c-1.6,0-2.3-.8-2.3-2.2v-5.3h-1.3v-1.8h1.3v-2.1h1.9v2.1h2.3v1.8h-2.3v4.8Z"></path>
      <path id="I-3" data-name="I" class="cls-1" d="M211.12,51.31h-1.9v-1.9h1.9Zm0,10.8h-1.9v-9.4h1.9Z"></path>
      <path class="cls-1" d="M215.32,60.31h4.6v1.8h-7v-1.8l4.5-5.8H213v-1.8h6.8v1.8Z"></path>
      <path id="Q" class="cls-1" d="M227.32,59.11h2a3.93,3.93,0,0,1-7.8-.7v-2a3.9,3.9,0,0,1,7.8,0v1.7h-6v.3a1.87,1.87,0,0,0,2,2.1C226.42,60.41,227.12,60,227.32,59.11Zm-3.9-2.8h4a1.79,1.79,0,0,0-2-2A1.84,1.84,0,0,0,223.42,56.31Z"></path>
      <path class="cls-1" d="M231.32,56.41a3.63,3.63,0,0,1,3.8-3.9,2.51,2.51,0,0,1,2.2,1.1v-4.2h1.9v12.7h-1.9v-.9a2.76,2.76,0,0,1-2.2,1.1,3.68,3.68,0,0,1-3.8-3.9Zm1.9,2a1.85,1.85,0,0,0,1.9,2.1,1.94,1.94,0,0,0,2.1-2.1v-2a2,2,0,1,0-4,0Z"></path>
      <path class="cls-2" d="M351.52,84.91l-50.9-10.8,51.7-18L403.12,67Z"></path>
      <path class="cls-1" d="M351.52,86.51h-.3l-50.9-10.9a1.4,1.4,0,0,1-1.2-1.4,1.54,1.54,0,0,1,1-1.5l51.7-18a2.2,2.2,0,0,1,.8-.1l50.8,10.9a1.4,1.4,0,0,1,1.2,1.4,1.54,1.54,0,0,1-1,1.5L352,86.31A1.69,1.69,0,0,1,351.52,86.51Zm-45.2-12.8,45.1,9.6,46.1-16-45.1-9.6Z"></path>
      <path class="cls-1" d="M353.92,76.71l-23-4.7c-.5-.1-.8-.4-.8-.6s.3-.6.7-.8l24.9-7.8c1.1-.3,2.5.1,2.5.6l-1.8,12.4c-.1.3-.4.5-.9.7A4.4,4.4,0,0,1,353.92,76.71ZM334.72,71l18.8,3.9,1.4-10.3L334.72,71Zm11.1-.3,1.8.4-1.1.9-1.8-.4Zm2.2-.1-1.4-.3,4.2-3.3,1.5.3-4.3,3.3Z"></path>
      <path class="cls-1" d="M281.72,146.51c-14.1,0-25.1-5.6-25.1-12.7s11-12.7,25.1-12.7,25.1,5.6,25.1,12.7S295.72,146.51,281.72,146.51Zm0-22.3c-13.2,0-22,5-22,9.6s8.9,9.6,22,9.6,22-5,22-9.6S294.82,124.21,281.72,124.21Z"></path>
      <path class="cls-1" d="M376.62,293a.79.79,0,0,1-.8-.8v-2.8a.79.79,0,0,1,.8-.8.74.74,0,0,1,.8.8v2.8C377.32,292.71,377,293,376.62,293Zm0-8.4a.79.79,0,0,1-.8-.8V281a.79.79,0,0,1,.8-.8.74.74,0,0,1,.8.8v2.8C377.32,284.31,377,284.61,376.62,284.61Zm0-8.4a.79.79,0,0,1-.8-.8v-2.8a.79.79,0,0,1,.8-.8.74.74,0,0,1,.8.8v2.8C377.32,275.81,377,276.21,376.62,276.21Zm0-8.5a.79.79,0,0,1-.8-.8v-2.7a.79.79,0,0,1,.8-.8.74.74,0,0,1,.8.8V267A.85.85,0,0,1,376.62,267.71Z"></path>
      <path class="cls-2" d="M397.22,262.71l-70-15,25.1-8.4,69.6,14.8Z"></path>
      <path class="cls-1" d="M397.22,264.21h-.3l-70-15a1.4,1.4,0,0,1-1.2-1.4,1.54,1.54,0,0,1,1-1.5l25.1-8.4a1.1,1.1,0,0,1,.8,0l69.6,14.8a1.4,1.4,0,0,1,1.2,1.4,1.54,1.54,0,0,1-1,1.5l-24.7,8.6ZM333,247.41l64.1,13.8,19.2-6.7-63.9-13.7-19.4,6.6Z"></path>
      <path class="cls-1" d="M363.32,250l7.2-4,1.1.2-9.3,5.1-1.1-.2,4.2-4.6-7.5,4-1.1-.2,5.5-5.8,1.1.2-4.4,4.5,7.4-3.9,1,.2Z"></path>
      <path class="cls-1" d="M362.32,251.81h0l-1.2-.2q-.15,0-.3-.3a.6.6,0,0,1,.1-.4l2.7-3-5.5,3c-.1,0-.2.1-.3,0l-1.1-.2q-.15,0-.3-.3a.6.6,0,0,1,.1-.4l5.5-5.8c.1-.1.2-.1.4-.1l1.1.2q.15,0,.3.3a.6.6,0,0,1-.1.4l-2.7,2.8,5.3-2.8c.1,0,.2-.1.3,0l1,.2q.15,0,.3.3a.6.6,0,0,1-.1.4l-2.6,2.9,5.2-2.9c.1,0,.2-.1.3,0l1.1.2a.32.32,0,0,1,.3.3.52.52,0,0,1-.2.4l-9.3,5.1c-.2-.2-.2-.1-.3-.1Zm-.4-.9.3.1,1-.6a.35.35,0,0,1-.2-.1.45.45,0,0,1,0-.5l3.7-4.1-.3-.1-1,.5c.1,0,.1.1.2.1a.45.45,0,0,1,0,.5l-3.7,4.2Zm-4.3-.9.3.1,1-.6c-.1,0-.1-.1-.2-.1a.45.45,0,0,1,0-.5l3.9-4h-.2l-4.8,5.1Z"></path>
      <path class="cls-1" d="M374.82,252.61l7.2-4.1,1.1.2-9.3,5.2-1.1-.2,4.2-4.7-7.4,4-1.1-.2,5.5-5.9,1.1.2-4.4,4.6,7.4-4,1,.2Z"></path>
      <path class="cls-1" d="M373.82,254.31l-1.2-.2q-.15,0-.3-.3a.6.6,0,0,1,.1-.4l2.8-3.1-5.6,3c-.1,0-.2.1-.3,0l-1.1-.2q-.15,0-.3-.3a.6.6,0,0,1,.1-.4l5.5-5.9c.1-.1.2-.1.4-.1l1.1.2q.15,0,.3.3a.6.6,0,0,1-.1.4l-2.7,2.9,5.3-2.9c.1,0,.2-.1.3,0l1,.2c.1,0,.2.1.3.2a.6.6,0,0,1-.1.4l-2.6,3,5.2-3c.1,0,.2-.1.3,0l1.1.2a.32.32,0,0,1,.3.3.52.52,0,0,1-.2.4l-9.3,5.2c-.2.1-.2.1-.3.1Zm-.4-.8.3.1,1-.6a.35.35,0,0,1-.2-.1.45.45,0,0,1,0-.5l3.7-4.2-.3-.1-1,.5c.1,0,.1.1.2.1a.45.45,0,0,1,0,.5Zm-4.3-.9.3.1,1.1-.6c-.1,0-.1-.1-.2-.1a.45.45,0,0,1,0-.5l3.9-4.1H374l-4.9,5.2Z"></path>
      <path class="cls-1" d="M386.32,255.11l7.2-4.2,1.1.2-9.3,5.3-1.1-.2,4.2-4.8-7.4,4.1-1.1-.2,5.5-6,1.1.2-4.3,4.7,7.4-4.1,1,.2Z"></path>
      <path class="cls-1" d="M385.22,256.81l-1.2-.2c-.1,0-.2-.1-.3-.2a.6.6,0,0,1,.1-.4l2.8-3.2-5.5,3.1c-.1,0-.2.1-.3,0l-1.1-.2q-.15,0-.3-.3a.6.6,0,0,1,.1-.4l5.5-6c.1-.1.2-.1.4-.1l1.1.2q.15,0,.3.3a.6.6,0,0,1-.1.4l-2.7,2.9,5.3-2.9c.1,0,.2-.1.3,0l1,.2q.15,0,.3.3a.6.6,0,0,1-.1.4l-2.6,3,5.2-3c.1,0,.2-.1.3,0l1.1.2a.32.32,0,0,1,.3.3c0,.2,0,.3-.2.4l-9.3,5.3a.76.76,0,0,0-.4-.1Zm-.4-.8.3.1,1.1-.6a.35.35,0,0,1-.2-.1.45.45,0,0,1,0-.5l3.7-4.3-.3-.1-1,.6c.1,0,.1.1.2.1a.45.45,0,0,1,0,.5l-3.8,4.3Zm-4.3-.9.3.1,1.1-.6c-.1,0-.1-.1-.2-.1a.45.45,0,0,1,0-.5l3.9-4.2h-.2l-4.9,5.3Z"></path>
      <path class="cls-1" d="M133.92,305.71h0"></path>
      <path class="cls-2" d="M183,208.21l-65.2-14,60.9-21.1,65,13.7Z"></path>
      <path class="cls-1" d="M183,209.71h-.3l-65.2-14a1.4,1.4,0,0,1-1.2-1.4,1.54,1.54,0,0,1,1-1.5l60.9-21.1a2.2,2.2,0,0,1,.8-.1l65.1,13.7a1.4,1.4,0,0,1,1.2,1.4,1.54,1.54,0,0,1-1,1.5l-60.7,21.4a1.49,1.49,0,0,1-.6.1Zm-59.6-15.8,59.5,12.8,55.2-19.4-59.3-12.5-55.4,19.1Z"></path>
      <path class="cls-2" d="M163.82,178.31,229,192"></path>
      <path class="cls-1" d="M229,193.61h-.3l-65.2-13.7a1.53,1.53,0,1,1,.6-3l65.2,13.7a1.65,1.65,0,0,1,1.2,1.8A1.51,1.51,0,0,1,229,193.61Z"></path>
      <path class="cls-2" d="M502.92,255.31,381,229.41l70.7-24.6,122.1,25.7Z"></path>
      <path class="cls-1" d="M502.92,256.81h-.3l-121.9-25.9a1.4,1.4,0,0,1-1.2-1.4,1.54,1.54,0,0,1,1-1.5l70.7-24.6a2.2,2.2,0,0,1,.8-.1L574.12,229a1.4,1.4,0,0,1,1.2,1.4,1.54,1.54,0,0,1-1,1.5l-70.9,24.8C503.22,256.71,503.12,256.81,502.92,256.81ZM386.62,229l116.1,24.6,65.4-22.8-116.4-24.5Z"></path>
      <path class="cls-2" d="M433.12,213.51l11,20.2,61.5-8.2,3.7,26.6"></path>
      <path class="cls-1" d="M509.32,253.61a1.59,1.59,0,0,1-1.5-1.3l-3.5-25.1-59.9,8.1a1.41,1.41,0,0,1-1.5-.8l-11-20.2a1.54,1.54,0,0,1,2.7-1.5l10.5,19.3,60.4-8.1a1.48,1.48,0,0,1,1.7,1.3l3.7,26.6a1.55,1.55,0,0,1-1.3,1.7Z"></path>
      <ellipse class="cls-2" cx="457.42" cy="217.21" rx="9.6" ry="5.5"></ellipse>
      <path class="cls-1" d="M457.42,224.21c-6.3,0-11.2-3.1-11.2-7s4.9-7,11.2-7,11.2,3.1,11.2,7S463.72,224.21,457.42,224.21Zm0-11c-4.8,0-8.1,2.1-8.1,4s3.3,4,8.1,4,8.1-2.1,8.1-4S462.22,213.21,457.42,213.21Z"></path>
      <path class="cls-1" d="M521.92,303.81h-2v-12.7h2Zm10.3,0h-1.9v-5.7a1.91,1.91,0,1,0-3.8,0v5.7h-1.9v-9.4h1.9v.8a2.55,2.55,0,0,1,2.1-1.1,3.35,3.35,0,0,1,2.7,1.3A3.83,3.83,0,0,1,538,298v5.7h-1.9V298a1.9,1.9,0,0,0-1.9-2.1,1.85,1.85,0,0,0-1.9,2.1v5.8Zm9.9-6.4h-2a3.93,3.93,0,0,1,7.8.7v5.7H546v-.9a3.61,3.61,0,0,1-2.8,1.1c-1.7,0-3.2-.9-3.2-2.8a2.78,2.78,0,0,1,2.1-2.8,20.69,20.69,0,0,1,4-.5h0a1.84,1.84,0,0,0-2-1.8,1.67,1.67,0,0,0-2,1.3Zm3.9,2.7v-.5a10,10,0,0,0-3.7.6,1,1,0,0,0-.5.9c0,.8.6,1.1,1.6,1.1,1.2,0,2.6-.4,2.6-2.1Zm10,3.3v-1a2.76,2.76,0,0,1-2.2,1.1,3.68,3.68,0,0,1-3.8-3.9v-1.5a3.63,3.63,0,0,1,3.8-3.9,2.51,2.51,0,0,1,2.2,1.1v-.8h1.9v9a3.63,3.63,0,0,1-3.9,3.9,3.59,3.59,0,0,1-3.9-3.3H552a1.87,1.87,0,0,0,2,1.5,2,2,0,0,0,2-2.2Zm-4-3.9a2,2,0,1,0,4,0v-1.4a2,2,0,1,0-4,0Zm14.1,1.4h2a3.93,3.93,0,0,1-7.8-.7v-2a3.9,3.9,0,0,1,7.8,0v1.7h-6v.3a1.87,1.87,0,0,0,2,2.1,2.22,2.22,0,0,0,2-1.4Zm-4-2.8h4a1.79,1.79,0,0,0-2-2C562.92,296,562.12,296.71,562.12,298.11Z"></path>
      <path id="G" class="cls-1" d="M569.62,300.81h2c.1.9,1,1.3,2.1,1.3.8,0,1.6-.2,1.6-1,0-.6-.6-.8-1.2-1l-1.8-.5a2.75,2.75,0,0,1-2.4-2.8c0-1.9,1.5-2.8,3.4-2.8s3.4.9,3.6,3h-2a1.56,1.56,0,0,0-1.7-1.2c-.6,0-1.4.2-1.4,1,0,.6.5.7,1.1.9l1.7.4c1.7.4,2.6,1.2,2.6,2.9,0,1.9-1.5,2.8-3.5,2.8-2.3.2-4-.8-4.1-3Z"></path>
      <path class="cls-1" d="M511.72,321.71h2a2.64,2.64,0,0,0,2.8,2.2c1.3,0,2.2-.6,2.2-1.6s-.5-1.5-1.8-1.8l-2.3-.5a3.33,3.33,0,0,1-2.6-3.6c0-2.5,1.9-3.6,4.1-3.6a4.06,4.06,0,0,1,4.4,3.6h-2a2.32,2.32,0,0,0-2.4-1.7c-1.5,0-2.2.7-2.2,1.7a1.65,1.65,0,0,0,1.4,1.7l2.2.5a3.61,3.61,0,0,1,3.1,3.8c0,2.1-1.5,3.5-4.2,3.5A4.48,4.48,0,0,1,511.72,321.71Zm12.6-2.5h-2a3.93,3.93,0,0,1,7.8.7v5.7h-1.9v-.9a3.61,3.61,0,0,1-2.8,1.1c-1.7,0-3.2-.9-3.2-2.8a2.78,2.78,0,0,1,2.1-2.8,20.69,20.69,0,0,1,4-.5h0a1.84,1.84,0,0,0-2-1.8,1.78,1.78,0,0,0-2,1.3Zm3.9,2.7v-.5a10,10,0,0,0-3.7.6,1,1,0,0,0-.5.9c0,.8.6,1.1,1.6,1.1,1.2,0,2.6-.4,2.6-2.1Zm6.3,3.7h-1.9v-9.4h1.9v.8a2.76,2.76,0,0,1,2.2-1.1,3.68,3.68,0,0,1,3.8,3.9v5.7h-1.9v-5.7a2,2,0,1,0-4,0v5.8Zm10.3-10.8h-1.9v-1.9h1.9Zm0,10.8h-1.9v-9.4h1.9v9.4Zm4.9-2.7c0,.7.1.9.9.9H552v1.8h-2c-1.6,0-2.3-.8-2.3-2.2v-5.3h-1.3v-1.9h1.3v-2.1h1.9v2.1h2.3V318h-2.3v4.9Zm6.1-8.1h-1.9v-1.9h1.9Zm0,10.8h-1.9v-9.4h1.9Zm4.3-1.8h4.6v1.8h-7v-1.8l4.5-5.8h-4.4v-1.8h6.8V318Zm12-1.2h2a3.93,3.93,0,0,1-7.8-.7v-2a3.9,3.9,0,1,1,7.8,0v1.7h-6v.3a1.87,1.87,0,0,0,2,2.1,2,2,0,0,0,2-1.4Zm-3.9-2.7h4a1.79,1.79,0,0,0-2-2C569,317.81,568.22,318.51,568.22,319.91Z"></path>
      <path id="D-2" data-name="D" class="cls-1" d="M576,319.91a3.63,3.63,0,0,1,3.8-3.9,2.51,2.51,0,0,1,2.2,1.1v-4.2h1.9v12.7H582v-.9a2.76,2.76,0,0,1-2.2,1.1,3.68,3.68,0,0,1-3.8-3.9Zm2,2a1.85,1.85,0,0,0,1.9,2.1,1.94,1.94,0,0,0,2.1-2.1v-2a2,2,0,1,0-4,0Z"></path>
      <path class="cls-2" d="M526,198.51l-152.7-33.7,25.7-8.7,150.1,33.5Z"></path>
      <path class="cls-1" d="M526,200h-.3L373,166.31a1.4,1.4,0,0,1-1.2-1.4,1.54,1.54,0,0,1,1-1.5l25.7-8.7a1.1,1.1,0,0,1,.8,0l150.1,33.4a1.5,1.5,0,0,1,1.2,1.4,1.42,1.42,0,0,1-1,1.5l-23.1,8.9a.75.75,0,0,1-.5.1Zm-147-35.5,146.9,32.4,18-6.9-144.8-32.3-20.1,6.8Z"></path>
      <path class="cls-2" d="M401.52,161.61l8.8,4.6,9.9-.3,8.8,4.6,9.9-.2,8.8,4.5,9.9-.2,8.9,4.6,9.9-.2,8.8,4.5,9.9-.2,8.8,4.5,10-.2,8.8,4.6"></path>
      <path class="cls-1" d="M522.72,193.71a1.85,1.85,0,0,1-.7-.2l-8.5-4.4-9.6.2a1.45,1.45,0,0,1-.7-.2l-8.5-4.4-9.5.2a1.45,1.45,0,0,1-.7-.2l-8.5-4.4-9.5.2a1.85,1.85,0,0,1-.7-.2l-8.5-4.4-9.5.2a1.17,1.17,0,0,1-.7-.2l-8.5-4.4-9.5.2a1.45,1.45,0,0,1-.7-.2l-8.5-4.4-9.5.2a1.85,1.85,0,0,1-.7-.2l-8.8-4.5a1.57,1.57,0,0,1,1.4-2.8l8.5,4.4,9.5-.2a1.45,1.45,0,0,1,.7.2l8.5,4.4,9.5-.2a1.45,1.45,0,0,1,.7.2l8.5,4.4,9.5-.2a1.45,1.45,0,0,1,.7.2l8.5,4.4,9.5-.2a1.45,1.45,0,0,1,.7.2l8.5,4.4,9.5-.2a1.85,1.85,0,0,1,.7.2l8.5,4.4,9.6-.2a1.85,1.85,0,0,1,.7.2l8.8,4.5a1.63,1.63,0,0,1,.7,2,1.55,1.55,0,0,1-1.4,1Z"></path>
      <path class="cls-2" d="M342.92,222.91v-10.1l-50.8,17.8v10.1Z"></path>
      <path class="cls-1" d="M292.12,242.21a1.61,1.61,0,0,1-.9-.3,1.43,1.43,0,0,1-.6-1.2v-10.1a1.5,1.5,0,0,1,1-1.4l50.8-17.8a1.4,1.4,0,0,1,1.4.2,1.43,1.43,0,0,1,.6,1.2v10.1a1.5,1.5,0,0,1-1,1.4l-50.8,17.8A.9.9,0,0,1,292.12,242.21Zm1.5-10.5v6.9l47.7-16.7V215Z"></path>
      <path class="cls-2" d="M205.42,222.31v-10.1l86.7,18.5v10.1Z"></path>
      <path class="cls-1" d="M292.12,242.41h-.3l-86.7-18.5a1.59,1.59,0,0,1-1.2-1.5v-10.2a1.43,1.43,0,0,1,.6-1.2,1.52,1.52,0,0,1,1.3-.3l86.6,18.5a1.59,1.59,0,0,1,1.2,1.5v10.1a1.43,1.43,0,0,1-.6,1.2A1.27,1.27,0,0,1,292.12,242.41Zm-85.2-21.3,83.7,17.9v-7l-83.7-17.9Z"></path>
      <path class="cls-2" d="M292,230.61l-86.5-18.5,50.3-17.5,86.8,18.2Z"></path>
      <path class="cls-1" d="M292,232.11h-.3l-86.6-18.5a1.4,1.4,0,0,1-1.2-1.4,1.54,1.54,0,0,1,1-1.5l50.4-17.5a2.2,2.2,0,0,1,.8-.1l86.7,18.2a1.4,1.4,0,0,1,1.2,1.4,1.54,1.54,0,0,1-1,1.5L292.52,232a.75.75,0,0,1-.5.1Zm-80.9-20.4,80.8,17.3,45-15.8-81-17-44.8,15.5Z"></path>
      <path class="cls-2" d="M263.32,202.21l52.6,11.4"></path>
      <path class="cls-1" d="M315.92,215.11h-.3l-4.9-1.1a1.53,1.53,0,0,1,.6-3l4.9,1.1a1.65,1.65,0,0,1,1.2,1.8A1.59,1.59,0,0,1,315.92,215.11Zm-10.9-2.4h-.3l-6-1.3a1.53,1.53,0,0,1,.6-3l6,1.3a1.65,1.65,0,0,1,1.2,1.8A1.42,1.42,0,0,1,305,212.71Zm-11.9-2.5h-.3l-6-1.3a1.53,1.53,0,1,1,.6-3l6,1.3a1.65,1.65,0,0,1,1.2,1.8A1.51,1.51,0,0,1,293.12,210.21Zm-11.9-2.6h-.3l-6-1.3a1.53,1.53,0,0,1,.6-3l6,1.3a1.65,1.65,0,0,1,1.2,1.8A1.59,1.59,0,0,1,281.22,207.61Zm-11.9-2.6H269l-6-1.3a1.53,1.53,0,0,1,.6-3l6,1.3a1.65,1.65,0,0,1,1.2,1.8A1.49,1.49,0,0,1,269.32,205Z"></path>
      <path class="cls-2" d="M243.42,207l52.5,11.3"></path>
      <path class="cls-1" d="M295.92,219.81h-.3l-4.9-1a1.53,1.53,0,1,1,.6-3l4.9,1a1.65,1.65,0,0,1,1.2,1.8A1.42,1.42,0,0,1,295.92,219.81Zm-10.8-2.3h-.3l-6-1.3a1.53,1.53,0,0,1,.6-3l6,1.3a1.65,1.65,0,0,1,1.2,1.8A1.59,1.59,0,0,1,285.12,217.51Zm-11.9-2.6h-.3l-6-1.3a1.53,1.53,0,0,1,.6-3l6,1.3a1.65,1.65,0,0,1,1.2,1.8A1.49,1.49,0,0,1,273.22,214.91Zm-11.9-2.5H261l-6-1.3a1.53,1.53,0,1,1,.6-3l6,1.3a1.65,1.65,0,0,1,1.2,1.8A1.59,1.59,0,0,1,261.32,212.41Zm-11.9-2.6h-.3l-6-1.3a1.53,1.53,0,1,1,.6-3l6,1.3a1.65,1.65,0,0,1,1.2,1.8A1.59,1.59,0,0,1,249.42,209.81Z"></path>
      <path class="cls-2" d="M455,135.81l-63.7-13.9L462,97.31l63.6,13.4Z"></path>
      <path class="cls-1" d="M455,137.41h-.3l-63.7-14a1.4,1.4,0,0,1-1.2-1.4,1.54,1.54,0,0,1,1-1.5l70.7-24.6a2.2,2.2,0,0,1,.8-.1l63.6,13.4a1.4,1.4,0,0,1,1.2,1.4,1.54,1.54,0,0,1-1,1.5l-70.6,25.1A.76.76,0,0,1,455,137.41Zm-58.1-15.9,58,12.7L520,111l-57.9-12.2Z"></path>
      <path class="cls-2" d="M525.82,120.91v-10.1l-70.8,25V146Z"></path>
      <path class="cls-1" d="M455,147.51a1.61,1.61,0,0,1-.9-.3,1.43,1.43,0,0,1-.6-1.2v-10.1a1.5,1.5,0,0,1,1-1.4l70.7-25.1a1.4,1.4,0,0,1,1.4.2,1.43,1.43,0,0,1,.6,1.2v10.1a1.5,1.5,0,0,1-1,1.4l-70.7,25.1a.75.75,0,0,1-.5.1Zm1.6-10.6v6.9l67.7-24v-6.9l-67.7,24Z"></path>
      <path class="cls-2" d="M455.12,146v-10.2L391.42,122v10.1Z"></path>
      <path class="cls-1" d="M455.12,147.51h-.3l-63.7-13.8a1.59,1.59,0,0,1-1.2-1.5v-10.1a1.43,1.43,0,0,1,.6-1.2,1.52,1.52,0,0,1,1.3-.3l63.7,13.8a1.59,1.59,0,0,1,1.2,1.5V146a1.43,1.43,0,0,1-.6,1.2A1.89,1.89,0,0,1,455.12,147.51Zm-62.2-16.6,60.7,13.2v-7l-60.7-13.2Z"></path>
      <path class="cls-3" d="M419.52,119.61l34.4,7.6m-19.7-12.3,34.4,7.6m-19.7-12.3,34.3,7.6m-19.7-12.2,34.4,7.5"></path>
      <path class="cls-1" d="M294.15,0H296V11.85h-1.79V3.62l-2.44,5h-1.49l-2.43-5v8.23H286V0h1.81L291,6.55Z"></path>
      <path class="cls-1" d="M299.94,5.82h-1.81a3.32,3.32,0,0,1,3.58-2.94,3.36,3.36,0,0,1,3.64,3.62v5.35h-1.77V11A3.24,3.24,0,0,1,301,12c-1.59,0-3-.79-3-2.58a2.6,2.6,0,0,1,1.9-2.63,17.16,17.16,0,0,1,3.67-.51h0a1.69,1.69,0,0,0-1.85-1.69A1.67,1.67,0,0,0,299.94,5.82Zm3.64,2.54V7.87a8.68,8.68,0,0,0-3.39.59.88.88,0,0,0-.42.81c0,.71.54,1,1.49,1S303.58,10,303.58,8.36Z"></path>
      <path class="cls-1" d="M311,12a3.37,3.37,0,0,1-3.64-3.62V6.5A3.65,3.65,0,0,1,314.59,6h-1.81A1.67,1.67,0,0,0,311,4.59a1.73,1.73,0,0,0-1.86,1.94V8.36a1.74,1.74,0,0,0,1.86,2,1.69,1.69,0,0,0,1.83-1.44h1.79A3.34,3.34,0,0,1,311,12Z"></path>
      <path class="cls-1" d="M320.16,4.69a1.73,1.73,0,0,0-1.87,1.93v5.23h-1.77V3.11h1.77V4a2.41,2.41,0,0,1,2-1H321V4.69Z"></path>
      <path class="cls-1" d="M322.08,6.5a3.64,3.64,0,0,1,7.28,0V8.39a3.64,3.64,0,0,1-7.28,0Zm5.5,0a1.86,1.86,0,1,0-3.72,0V8.36a1.86,1.86,0,1,0,3.72,0Z"></path>
      <path class="cls-1" d="M330.85,9.05h1.82c.14.87,1,1.26,1.92,1.26.78,0,1.44-.21,1.44-.92s-.53-.78-1.1-.91l-1.66-.43a2.52,2.52,0,0,1-2.22-2.6c0-1.73,1.39-2.57,3.16-2.57s3.19.84,3.36,2.79H335.7c-.13-.76-.79-1.08-1.6-1.08-.55,0-1.26.2-1.26.89,0,.53.51.7,1,.81l1.6.41c1.59.41,2.39,1.08,2.39,2.74S336.47,12,334.57,12,331,11.05,330.85,9.05Z"></path>
      <path class="cls-1" d="M345.21,6.75v5.1H343.4V0h4.66c2.35,0,3.63,1.34,3.63,3.38A3.08,3.08,0,0,1,349,6.67l3,5.18h-2l-3-5.1Zm2.85-5h-2.85V5h2.85a1.57,1.57,0,0,0,1.79-1.61A1.57,1.57,0,0,0,348.06,1.79Z"></path>
      <path class="cls-1" d="M358.56,9.07h1.81A3.32,3.32,0,0,1,356.79,12a3.36,3.36,0,0,1-3.64-3.62V6.5a3.64,3.64,0,0,1,7.27,0V8.07h-5.5v.29a1.74,1.74,0,0,0,1.87,2A1.68,1.68,0,0,0,358.56,9.07Zm-3.64-2.59v0h3.73v0a1.87,1.87,0,1,0-3.73,0Z"></path>
      <path class="cls-1" d="M369.54,11.85h-1.77V6.53a1.79,1.79,0,1,0-3.56,0v5.32h-1.77V3.11h1.77v.77a2.38,2.38,0,0,1,2-1,3.17,3.17,0,0,1,2.5,1.23,3.53,3.53,0,0,1,6.21,2.39v5.35H373.1V6.53a1.79,1.79,0,1,0-3.56,0Z"></path>
      <path class="cls-1" d="M376.85,6.5a3.64,3.64,0,0,1,7.28,0V8.39a3.64,3.64,0,0,1-7.28,0Zm5.5,0a1.86,1.86,0,1,0-3.72,0V8.36a1.86,1.86,0,1,0,3.72,0Z"></path>
      <path class="cls-1" d="M391.23,3.11h1.85l-3.15,8.74h-1.76L385,3.11h1.85l2.18,6.21Z"></path>
      <path class="cls-1" d="M399.39,9.07h1.81A3.33,3.33,0,0,1,397.61,12,3.37,3.37,0,0,1,394,8.39V6.5a3.64,3.64,0,0,1,7.28,0V8.07h-5.5v.29a1.74,1.74,0,0,0,1.86,2A1.69,1.69,0,0,0,399.39,9.07Zm-3.64-2.59v0h3.72v0a1.73,1.73,0,0,0-1.86-1.89A1.71,1.71,0,0,0,395.75,6.48Z"></path>
      <path class="cls-1" d="M403,6.5a3.36,3.36,0,0,1,3.47-3.62,2.38,2.38,0,0,1,2,1V0h1.78V11.85h-1.78V11a2.39,2.39,0,0,1-2,1A3.36,3.36,0,0,1,403,8.39Zm1.78,1.86a1.69,1.69,0,0,0,1.74,1.93,1.81,1.81,0,0,0,2-1.93V6.53a1.86,1.86,0,1,0-3.72,0Z"></path>
      <text></text>
      <path class="cls-1" d="M445.43,33.24h5.18V35h-5.18v3.29h5.18v1.79h-7V28.27h7v1.79h-5.18Z"></path>
      <path class="cls-1" d="M454.53,40.11h-1.77V31.38h1.77v.76a2.4,2.4,0,0,1,2-1A3.36,3.36,0,0,1,460,34.76v5.35h-1.78V34.8a1.86,1.86,0,1,0-3.72,0Z"></path>
      <path class="cls-1" d="M465.65,40.28A3.36,3.36,0,0,1,462,36.66v-1.9a3.65,3.65,0,0,1,7.26-.47h-1.81a1.67,1.67,0,0,0-1.81-1.44,1.74,1.74,0,0,0-1.86,1.95v1.82a1.74,1.74,0,0,0,1.86,2,1.69,1.69,0,0,0,1.83-1.44h1.79A3.34,3.34,0,0,1,465.65,40.28Z"></path>
      <path class="cls-1" d="M472.94,37.57c0,.65.12.83.81.83H474v1.71h-.78A1.82,1.82,0,0,1,471.16,38V28.27h1.78Z"></path>
      <path class="cls-1" d="M475.56,34.76a3.64,3.64,0,0,1,7.28,0v1.9a3.64,3.64,0,0,1-7.28,0Zm5.5,0a1.86,1.86,0,1,0-3.72,0v1.82a1.86,1.86,0,1,0,3.72,0Z"></path>
      <path class="cls-1" d="M484.33,37.32h1.82c.14.86,1,1.25,1.92,1.25.77,0,1.43-.2,1.43-.91s-.52-.78-1.1-.92l-1.65-.42a2.52,2.52,0,0,1-2.22-2.61c0-1.72,1.39-2.57,3.16-2.57s3.19.85,3.35,2.79h-1.86c-.13-.76-.79-1.08-1.6-1.08-.55,0-1.26.2-1.26.9,0,.52.51.69,1,.81l1.61.41c1.59.4,2.39,1.08,2.39,2.74s-1.36,2.57-3.25,2.57S484.43,39.31,484.33,37.32Z"></path>
      <path class="cls-1" d="M498.27,37.33h1.81a3.34,3.34,0,0,1-3.59,3,3.37,3.37,0,0,1-3.64-3.62v-1.9a3.64,3.64,0,0,1,7.28,0v1.58h-5.5v.28a1.74,1.74,0,0,0,1.86,2A1.69,1.69,0,0,0,498.27,37.33Zm-3.64-2.58h3.72a1.74,1.74,0,0,0-1.86-1.9A1.72,1.72,0,0,0,494.63,34.75Z"></path>
      <path class="cls-1" d="M501.9,34.76a3.36,3.36,0,0,1,3.47-3.62,2.38,2.38,0,0,1,2,1V28.27h1.78V40.11H507.4v-.83a2.38,2.38,0,0,1-2,1,3.36,3.36,0,0,1-3.47-3.62Zm1.78,1.86a1.69,1.69,0,0,0,1.74,1.93,1.81,1.81,0,0,0,2-1.93V34.8a1.86,1.86,0,1,0-3.72,0Z"></path>
      <path class="cls-1" d="M515.3,40.11V28.27h4.25a4,4,0,0,1,4.25,4.17v3.49a4,4,0,0,1-4.25,4.18Zm4.25-1.79A2.32,2.32,0,0,0,522,35.9V32.48a2.32,2.32,0,0,0-2.44-2.42h-2.44v8.26Z"></path>
      <path class="cls-1" d="M525.62,34.76a3.64,3.64,0,0,1,7.28,0v1.9a3.64,3.64,0,0,1-7.28,0Zm5.5,0a1.86,1.86,0,1,0-3.72,0v1.82a1.86,1.86,0,1,0,3.72,0Z"></path>
      <path class="cls-1" d="M538.4,40.28a3.37,3.37,0,0,1-3.64-3.62v-1.9a3.65,3.65,0,0,1,7.26-.47h-1.81a1.67,1.67,0,0,0-1.81-1.44,1.74,1.74,0,0,0-1.86,1.95v1.82a1.74,1.74,0,0,0,1.86,2,1.69,1.69,0,0,0,1.83-1.44H542A3.34,3.34,0,0,1,538.4,40.28Z"></path>
      <path class="cls-1" d="M545.61,36.62a1.81,1.81,0,1,0,3.62,0V31.38H551v8.73h-1.77v-.83a2.4,2.4,0,0,1-2,1,3.36,3.36,0,0,1-3.37-3.62V31.38h1.78Z"></path>
      <path class="cls-1" d="M560.44,40.11h-1.77V34.8a1.79,1.79,0,1,0-3.56,0v5.31h-1.77V31.38h1.77v.76a2.4,2.4,0,0,1,1.95-1,3.15,3.15,0,0,1,2.5,1.24,3.33,3.33,0,0,1,2.66-1.24,3.38,3.38,0,0,1,3.56,3.62v5.35H564V34.8a1.79,1.79,0,1,0-3.56,0Z"></path>
      <path class="cls-1" d="M573.17,37.33H575a3.34,3.34,0,0,1-3.59,3,3.37,3.37,0,0,1-3.64-3.62v-1.9a3.64,3.64,0,0,1,7.28,0v1.58h-5.5v.28a1.74,1.74,0,0,0,1.86,2A1.69,1.69,0,0,0,573.17,37.33Zm-3.64-2.58h3.72a1.86,1.86,0,1,0-3.72,0Z"></path>
      <path class="cls-1" d="M578.82,40.11H577V31.38h1.78v.76a2.38,2.38,0,0,1,2-1,3.36,3.36,0,0,1,3.47,3.62v5.35h-1.78V34.8a1.86,1.86,0,1,0-3.72,0Z"></path>
      <path class="cls-1" d="M588.72,37.57c0,.65.11.83.81.83h1.34v1.71H589A1.82,1.82,0,0,1,586.94,38v-5H585.7V31.38h1.24v-2h1.78v2h2.15v1.67h-2.15Z"></path>
      <path class="cls-1" d="M592,37.32h1.82c.14.86,1,1.25,1.92,1.25.77,0,1.43-.2,1.43-.91s-.52-.78-1.09-.92l-1.66-.42a2.53,2.53,0,0,1-2.22-2.61c0-1.72,1.39-2.57,3.16-2.57s3.19.85,3.35,2.79h-1.86c-.13-.76-.79-1.08-1.6-1.08-.55,0-1.26.2-1.26.9,0,.52.51.69,1,.81l1.6.41c1.59.4,2.39,1.08,2.39,2.74s-1.35,2.57-3.25,2.57S592.1,39.31,592,37.32Z"></path>
      <path class="cls-1" d="M487.34,56.74h1.84a2.39,2.39,0,0,0,2.56,2c1.22,0,2-.59,2-1.51s-.49-1.42-1.67-1.71l-2.1-.5a3.16,3.16,0,0,1-2.44-3.32c0-2.29,1.73-3.35,3.83-3.35a3.73,3.73,0,0,1,4,3.33h-1.84a2.06,2.06,0,0,0-2.18-1.54c-1.41,0-2,.66-2,1.56a1.53,1.53,0,0,0,1.34,1.57l2,.49a3.31,3.31,0,0,1,2.84,3.51c0,1.91-1.41,3.26-3.88,3.26A4,4,0,0,1,487.34,56.74Z"></path>
      <path class="cls-1" d="M498.94,54.39h-1.81a3.34,3.34,0,0,1,3.59-3,3.38,3.38,0,0,1,3.64,3.63v5.34h-1.78v-.83a3.2,3.2,0,0,1-2.6,1c-1.59,0-3-.79-3-2.59a2.59,2.59,0,0,1,1.89-2.62,16.56,16.56,0,0,1,3.68-.51h0a1.87,1.87,0,0,0-3.63-.46Zm3.64,2.54v-.49a8.66,8.66,0,0,0-3.38.59.87.87,0,0,0-.42.81c0,.71.54,1,1.48,1S502.58,58.55,502.58,56.93Z"></path>
      <path class="cls-1" d="M508.35,60.41h-1.77V51.68h1.77v.76a2.43,2.43,0,0,1,2-1,3.37,3.37,0,0,1,3.47,3.63v5.34h-1.78V55.1a1.86,1.86,0,1,0-3.72,0Z"></path>
      <path class="cls-1" d="M517.84,50.38h-1.77V48.57h1.77Zm0,10h-1.77V51.68h1.77Z"></path>
      <path class="cls-1" d="M522.36,57.88c0,.64.12.82.81.82h1.34v1.71h-1.84a1.82,1.82,0,0,1-2.09-2.08v-5h-1.23V51.68h1.23v-2h1.78v2h2.15v1.68h-2.15Z"></path>
      <path class="cls-1" d="M528,50.38h-1.78V48.57H528Zm0,10h-1.78V51.68H528Z"></path>
      <path class="cls-1" d="M532,58.74h4.3v1.67h-6.52V58.74l4.18-5.38h-4.06V51.68h6.28v1.68Z"></path>
      <path class="cls-1" d="M543.05,57.64h1.81a3.32,3.32,0,0,1-3.58,2.94A3.36,3.36,0,0,1,537.64,57V55.07a3.64,3.64,0,0,1,7.27,0v1.57h-5.49v.29a1.73,1.73,0,0,0,1.86,1.94A1.67,1.67,0,0,0,543.05,57.64Zm-3.63-2.59v0h3.72v0a1.74,1.74,0,0,0-1.86-1.9A1.72,1.72,0,0,0,539.42,55.05Z"></path>
      <path class="cls-1" d="M546.69,55.07a3.37,3.37,0,0,1,3.47-3.63,2.41,2.41,0,0,1,2,1V48.57H554V60.41h-1.78v-.83a2.39,2.39,0,0,1-2,1A3.36,3.36,0,0,1,546.69,57Zm1.78,1.86a1.69,1.69,0,0,0,1.74,1.93,1.81,1.81,0,0,0,2-1.93V55.1a1.86,1.86,0,1,0-3.72,0Z"></path>
      <path class="cls-1" d="M1.81,161H7v1.79H1.81v5.08H0V156.05H7v1.8H1.81Z"></path>
      <path class="cls-1" d="M8.73,162.55a3.37,3.37,0,0,1,3.64-3.62A3.37,3.37,0,0,1,16,162.55v1.9a3.37,3.37,0,0,1-3.64,3.62,3.37,3.37,0,0,1-3.64-3.62Zm5.5,0a1.73,1.73,0,0,0-1.86-1.94,1.73,1.73,0,0,0-1.86,1.94v1.83a1.74,1.74,0,0,0,1.86,2,1.74,1.74,0,0,0,1.86-2Z"></path>
      <path class="cls-1" d="M21.74,160.74a1.72,1.72,0,0,0-1.86,1.93v5.23H18.1v-8.73h1.78V160a2.41,2.41,0,0,1,2-1h.68v1.73Z"></path>
      <path class="cls-1" d="M31.05,167.9H29.27v-5.32a1.78,1.78,0,1,0-3.55,0v5.32H23.94v-8.73h1.78v.76a2.36,2.36,0,0,1,1.94-1,3.17,3.17,0,0,1,2.51,1.24,3.29,3.29,0,0,1,2.65-1.24,3.38,3.38,0,0,1,3.56,3.62v5.35H34.6v-5.32a1.78,1.78,0,1,0-3.55,0Z"></path>
      <path class="cls-1" d="M44.19,161h5.18v1.79H44.19v5.08H42.38V156.05h7v1.8H44.19Z"></path>
      <path class="cls-1" d="M53.12,157.86H51.35v-1.81h1.77Zm0,10H51.35v-8.73h1.77Z"></path>
      <path class="cls-1" d="M60.64,165.12h1.81a3.34,3.34,0,0,1-3.59,2.95,3.37,3.37,0,0,1-3.64-3.62v-1.9a3.64,3.64,0,0,1,7.28,0v1.57H57v.29a1.74,1.74,0,0,0,1.86,2A1.69,1.69,0,0,0,60.64,165.12ZM57,162.53v0h3.72v0a1.86,1.86,0,1,0-3.72,0Z"></path>
      <path class="cls-1" d="M66.25,165.36c0,.64.12.83.82.83h.27v1.71h-.78a1.82,1.82,0,0,1-2.08-2.08v-9.77h1.77Z"></path>
      <path class="cls-1" d="M68.88,162.55a3.36,3.36,0,0,1,3.46-3.62,2.41,2.41,0,0,1,2,1v-3.88h1.77V167.9H74.38v-.83a2.41,2.41,0,0,1-2,1,3.36,3.36,0,0,1-3.46-3.62Zm1.77,1.86a1.69,1.69,0,0,0,1.75,1.93,1.81,1.81,0,0,0,2-1.93v-1.83a1.87,1.87,0,1,0-3.73,0Z"></path>
      <path class="cls-1" d="M77.88,165.11H79.7c.14.86,1,1.25,1.92,1.25.77,0,1.43-.2,1.43-.92s-.52-.77-1.09-.91l-1.66-.42a2.53,2.53,0,0,1-2.22-2.61c0-1.72,1.39-2.57,3.16-2.57s3.19.85,3.35,2.79H82.73c-.13-.76-.79-1.08-1.6-1.08-.55,0-1.26.2-1.26.9,0,.52.51.69,1,.81l1.6.4c1.59.41,2.39,1.09,2.39,2.75s-1.35,2.57-3.25,2.57S78,167.1,77.88,165.11Z"></path>
      <path class="cls-1" d="M9.2,181.33h5.17v1.79H9.2v5.08H7.38V176.36h7v1.79H9.2Z"></path>
      <path class="cls-1" d="M18.09,185.66c0,.65.12.83.82.83h.27v1.71H18.4a1.82,1.82,0,0,1-2.08-2.08v-9.76h1.77Z"></path>
      <path class="cls-1" d="M22.51,182.18H20.7a3.33,3.33,0,0,1,3.59-3,3.37,3.37,0,0,1,3.64,3.62v5.35H26.15v-.83a3.22,3.22,0,0,1-2.61,1c-1.59,0-3-.79-3-2.59a2.59,2.59,0,0,1,1.9-2.62,16.55,16.55,0,0,1,3.67-.51v0a1.69,1.69,0,0,0-1.84-1.69A1.69,1.69,0,0,0,22.51,182.18Zm3.64,2.54v-.5a8.87,8.87,0,0,0-3.39.6.87.87,0,0,0-.42.81c0,.71.54,1,1.49,1S26.15,186.34,26.15,184.72Z"></path>
      <path class="cls-1" d="M32.32,185.66c0,.65.12.83.82.83h1.33v1.71H32.63a1.82,1.82,0,0,1-2.08-2.08v-5H29.31v-1.67h1.24v-2h1.77v2h2.15v1.67H32.32Z"></path>
      <path class="cls-1" d="M38.4,185.66c0,.65.12.83.81.83h1.34v1.71H38.7a1.82,1.82,0,0,1-2.08-2.08v-5H35.39v-1.67h1.23v-2H38.4v2h2.15v1.67H38.4Z"></path>
      <path class="cls-1" d="M47.47,185.43h1.81a3.34,3.34,0,0,1-3.59,2.94,3.37,3.37,0,0,1-3.64-3.62v-1.9a3.37,3.37,0,0,1,3.64-3.62,3.37,3.37,0,0,1,3.64,3.62v1.58h-5.5v.29a1.73,1.73,0,0,0,1.86,1.94A1.69,1.69,0,0,0,47.47,185.43Zm-3.64-2.59h3.72a1.74,1.74,0,0,0-1.86-1.9A1.72,1.72,0,0,0,43.83,182.84Z"></path>
      <path class="cls-1" d="M53.12,188.2H51.34v-8.73h1.78v.76a2.38,2.38,0,0,1,2-1,3.36,3.36,0,0,1,3.47,3.62v5.35H56.84v-5.31a1.86,1.86,0,1,0-3.72,0Z"></path>
      <path class="cls-1" d="M66,185.43h1.81a3.33,3.33,0,0,1-3.59,2.94,3.37,3.37,0,0,1-3.64-3.62v-1.9a3.64,3.64,0,0,1,7.28,0v1.58h-5.5v.29a1.73,1.73,0,0,0,1.86,1.94A1.69,1.69,0,0,0,66,185.43Zm-3.64-2.59h3.72a1.86,1.86,0,1,0-3.72,0Z"></path>
      <path class="cls-1" d="M69.65,182.85a3.36,3.36,0,0,1,3.46-3.62,2.41,2.41,0,0,1,2,1v-3.87h1.77V188.2H75.15v-.83a2.41,2.41,0,0,1-2,1,3.36,3.36,0,0,1-3.46-3.62Zm1.77,1.87a1.68,1.68,0,0,0,1.75,1.92,1.8,1.8,0,0,0,2-1.92v-1.83a1.87,1.87,0,1,0-3.73,0Z"></path>
      <path class="cls-1" d="M139.66,280.36h5.18v1.79h-5.18v3.28h5.18v1.8h-7V275.38h7v1.8h-5.18Z"></path>
      <path class="cls-1" d="M154.09,287.23h-1.77v-5.31a1.79,1.79,0,1,0-3.56,0v5.31H147V278.5h1.77v.76a2.38,2.38,0,0,1,2-1,3.15,3.15,0,0,1,2.5,1.24,3.33,3.33,0,0,1,2.66-1.24,3.38,3.38,0,0,1,3.56,3.62v5.35h-1.78v-5.31a1.79,1.79,0,1,0-3.56,0Z"></path>
      <path class="cls-1" d="M168.92,283.78a3.36,3.36,0,0,1-3.47,3.62,2.38,2.38,0,0,1-2-1v.83h-1.78V275.38h1.78v3.88a2.38,2.38,0,0,1,2-1,3.36,3.36,0,0,1,3.47,3.62Zm-1.78-1.86a1.86,1.86,0,1,0-3.72,0v1.82a1.86,1.86,0,1,0,3.72,0Z"></path>
      <path class="cls-1" d="M176.19,284.45H178a3.33,3.33,0,0,1-3.58,2.95,3.37,3.37,0,0,1-3.64-3.62v-1.9a3.64,3.64,0,0,1,7.27,0v1.58h-5.5v.28a1.74,1.74,0,0,0,1.87,1.95A1.69,1.69,0,0,0,176.19,284.45Zm-3.64-2.59v0h3.73v0a1.87,1.87,0,1,0-3.73,0Z"></path>
      <path class="cls-1" d="M179.83,281.88a3.36,3.36,0,0,1,3.47-3.62,2.4,2.4,0,0,1,2,1v-3.88h1.77v11.85h-1.77v-.83a2.4,2.4,0,0,1-2,1,3.36,3.36,0,0,1-3.47-3.62Zm1.77,1.86a1.7,1.7,0,0,0,1.75,1.93,1.81,1.81,0,0,0,2-1.93v-1.82a1.87,1.87,0,1,0-3.73,0Z"></path>
      <path class="cls-1" d="M189.2,281.88a3.36,3.36,0,0,1,3.47-3.62,2.39,2.39,0,0,1,2,1v-3.88h1.78v11.85H194.7v-.83a2.39,2.39,0,0,1-2,1,3.36,3.36,0,0,1-3.47-3.62Zm1.78,1.86a1.69,1.69,0,0,0,1.74,1.93,1.81,1.81,0,0,0,2-1.93v-1.82a1.86,1.86,0,1,0-3.72,0Z"></path>
      <path class="cls-1" d="M204,284.45h1.81a3.34,3.34,0,0,1-3.59,2.95,3.37,3.37,0,0,1-3.64-3.62v-1.9a3.64,3.64,0,0,1,7.28,0v1.58h-5.5v.28a1.74,1.74,0,0,0,1.86,1.95A1.69,1.69,0,0,0,204,284.45Zm-3.64-2.59v0h3.72v0a1.86,1.86,0,1,0-3.72,0Z"></path>
      <path class="cls-1" d="M207.62,281.88a3.36,3.36,0,0,1,3.47-3.62,2.38,2.38,0,0,1,2,1v-3.88h1.78v11.85h-1.78v-.83a2.38,2.38,0,0,1-2,1,3.36,3.36,0,0,1-3.47-3.62Zm1.78,1.86a1.69,1.69,0,0,0,1.74,1.93,1.8,1.8,0,0,0,2-1.93v-1.82a1.86,1.86,0,1,0-3.72,0Z"></path>
      <path class="cls-1" d="M220.67,279.39a4.25,4.25,0,0,1,8.49,0v3.83a4.25,4.25,0,0,1-8.49,0Zm6.68,0a2.44,2.44,0,0,0-4.87,0v3.83a2.44,2.44,0,0,0,4.87,0Z"></path>
      <path class="cls-1" d="M238.5,283.78A3.36,3.36,0,0,1,235,287.4a2.4,2.4,0,0,1-2-1v.83h-1.77V275.38H233v3.88a2.4,2.4,0,0,1,2-1,3.36,3.36,0,0,1,3.47,3.62Zm-1.77-1.86a1.87,1.87,0,1,0-3.73,0v1.82a1.87,1.87,0,1,0,3.73,0Z"></path>
      <path class="cls-1" d="M240.6,278.5h1.78v9.76a1.82,1.82,0,0,1-2.09,2.08h-.77v-1.71h.27c.69,0,.81-.18.81-.83Zm1.78-1.31H240.6v-1.81h1.78Z"></path>
      <path class="cls-1" d="M249.89,284.45h1.81a3.34,3.34,0,0,1-3.59,2.95,3.37,3.37,0,0,1-3.64-3.62v-1.9a3.64,3.64,0,0,1,7.28,0v1.58h-5.5v.28a1.74,1.74,0,0,0,1.86,1.95A1.69,1.69,0,0,0,249.89,284.45Zm-3.64-2.59v0H250v0a1.86,1.86,0,1,0-3.72,0Z"></path>
      <path class="cls-1" d="M257.16,287.4a3.37,3.37,0,0,1-3.63-3.62v-1.9a3.65,3.65,0,0,1,7.26-.47H259a1.67,1.67,0,0,0-1.81-1.44,1.74,1.74,0,0,0-1.86,1.95v1.82a1.74,1.74,0,0,0,1.86,1.95,1.69,1.69,0,0,0,1.83-1.44h1.8A3.35,3.35,0,0,1,257.16,287.4Z"></path>
      <path class="cls-1" d="M264.89,284.69c0,.64.12.83.82.83H267v1.71H265.2a1.82,1.82,0,0,1-2.08-2.08v-5h-1.24V278.5h1.24v-2h1.77v2H267v1.67h-2.15Z"></path>
      <path class="cls-1" d="M268.18,284.44H270c.14.86,1,1.25,1.92,1.25.77,0,1.43-.2,1.43-.92s-.52-.77-1.1-.91l-1.65-.42a2.53,2.53,0,0,1-2.22-2.61c0-1.72,1.39-2.57,3.16-2.57s3.19.85,3.35,2.79H273c-.13-.76-.79-1.08-1.6-1.08-.55,0-1.26.2-1.26.9,0,.52.51.69,1,.81l1.6.4c1.59.41,2.39,1.09,2.39,2.75s-1.36,2.57-3.25,2.57S268.28,286.43,268.18,284.44Z"></path>
      <path class="cls-1" d="M126.69,303.86h1.85a2.38,2.38,0,0,0,2.55,2.05c1.22,0,2-.6,2-1.51s-.49-1.42-1.67-1.71l-2.1-.51a3.15,3.15,0,0,1-2.44-3.31c0-2.29,1.73-3.35,3.83-3.35a3.73,3.73,0,0,1,4,3.33H132.9a2,2,0,0,0-2.18-1.54c-1.4,0-2,.66-2,1.56a1.53,1.53,0,0,0,1.34,1.57l2,.49a3.31,3.31,0,0,1,2.85,3.51c0,1.91-1.41,3.26-3.88,3.26A4,4,0,0,1,126.69,303.86Z"></path>
      <path class="cls-1" d="M138.3,301.51h-1.81a3.33,3.33,0,0,1,3.59-2.95,3.37,3.37,0,0,1,3.64,3.62v5.35h-1.78v-.83a3.22,3.22,0,0,1-2.61,1c-1.59,0-3-.79-3-2.59a2.59,2.59,0,0,1,1.9-2.62,16.55,16.55,0,0,1,3.67-.51v0a1.87,1.87,0,0,0-3.62-.45Zm3.64,2.54v-.49a8.72,8.72,0,0,0-3.39.59.87.87,0,0,0-.42.81c0,.71.54,1,1.49,1S141.94,305.67,141.94,304.05Z"></path>
      <path class="cls-1" d="M147.71,307.53h-1.78V298.8h1.78v.76a2.39,2.39,0,0,1,2-1,3.36,3.36,0,0,1,3.47,3.62v5.35h-1.78v-5.31a1.86,1.86,0,1,0-3.72,0Z"></path>
      <path class="cls-1" d="M157.2,297.5h-1.78v-1.81h1.78Zm0,10h-1.78V298.8h1.78Z"></path>
      <path class="cls-1" d="M161.72,305c0,.65.11.83.81.83h1.34v1.71H162a1.82,1.82,0,0,1-2.08-2.08v-5h-1.23V298.8h1.23v-2h1.78v2h2.15v1.68h-2.15Z"></path>
      <path class="cls-1" d="M167.38,297.5h-1.77v-1.81h1.77Zm0,10h-1.77V298.8h1.77Z"></path>
      <path class="cls-1" d="M171.33,305.86h4.29v1.67h-6.51v-1.67l4.18-5.38h-4.06V298.8h6.28v1.68Z"></path>
      <path class="cls-1" d="M182.41,304.76h1.81a3.33,3.33,0,0,1-3.59,2.94,3.37,3.37,0,0,1-3.64-3.62v-1.9a3.64,3.64,0,0,1,7.28,0v1.58h-5.5v.29a1.73,1.73,0,0,0,1.86,1.94A1.69,1.69,0,0,0,182.41,304.76Zm-3.64-2.59h3.72a1.86,1.86,0,1,0-3.72,0Z"></path>
      <path class="cls-1" d="M186.05,302.18a3.36,3.36,0,0,1,3.46-3.62,2.41,2.41,0,0,1,2,1v-3.87h1.77v11.84h-1.77v-.83a2.41,2.41,0,0,1-2,1,3.36,3.36,0,0,1-3.46-3.62Zm1.77,1.87a1.69,1.69,0,0,0,1.75,1.93,1.81,1.81,0,0,0,2-1.93v-1.83a1.87,1.87,0,1,0-3.73,0Z"></path>
      <path class="cls-1" d="M199.12,302.18a3.64,3.64,0,0,1,7.28,0v1.9a3.64,3.64,0,0,1-7.28,0Zm5.5,0a1.86,1.86,0,1,0-3.72,0v1.83a1.86,1.86,0,1,0,3.72,0Z"></path>
      <path class="cls-1" d="M212.13,300.37a1.72,1.72,0,0,0-1.86,1.93v5.23H208.5V298.8h1.77v.85a2.4,2.4,0,0,1,2-1H213v1.72Z"></path>
      <path class="cls-1" d="M219.93,302.44v5.09h-1.81V295.69h4.66c2.35,0,3.64,1.33,3.64,3.38a3.08,3.08,0,0,1-2.66,3.28l3,5.18h-2l-3-5.09Zm2.85-5h-2.85v3.21h2.85c1.1,0,1.79-.57,1.79-1.6A1.57,1.57,0,0,0,222.78,297.48Z"></path>
      <path class="cls-1" d="M233.28,304.76h1.81a3.33,3.33,0,0,1-3.58,2.94,3.36,3.36,0,0,1-3.64-3.62v-1.9a3.64,3.64,0,0,1,7.27,0v1.58h-5.49v.29a1.73,1.73,0,0,0,1.86,1.94A1.67,1.67,0,0,0,233.28,304.76Zm-3.63-2.59h3.72a1.74,1.74,0,0,0-1.86-1.9A1.72,1.72,0,0,0,229.65,302.17Z"></path>
      <path class="cls-1" d="M244.26,307.53h-1.77v-5.31a1.79,1.79,0,1,0-3.56,0v5.31h-1.77V298.8h1.77v.76a2.4,2.4,0,0,1,1.95-1,3.15,3.15,0,0,1,2.5,1.24,3.33,3.33,0,0,1,2.66-1.24,3.37,3.37,0,0,1,3.55,3.62v5.35h-1.77v-5.31a1.79,1.79,0,1,0-3.56,0Z"></path>
      <path class="cls-1" d="M251.57,302.18a3.64,3.64,0,0,1,7.28,0v1.9a3.64,3.64,0,0,1-7.28,0Zm5.5,0a1.86,1.86,0,1,0-3.72,0v1.83a1.86,1.86,0,1,0,3.72,0Z"></path>
      <path class="cls-1" d="M266,298.8h1.85l-3.15,8.73h-1.76l-3.15-8.73h1.85l2.18,6.21Z"></path>
      <path class="cls-1" d="M274.11,304.76h1.81a3.33,3.33,0,0,1-3.59,2.94,3.37,3.37,0,0,1-3.64-3.62v-1.9a3.64,3.64,0,0,1,7.28,0v1.58h-5.5v.29a1.73,1.73,0,0,0,1.86,1.94A1.69,1.69,0,0,0,274.11,304.76Zm-3.64-2.59h3.72a1.86,1.86,0,1,0-3.72,0Z"></path>
      <path class="cls-1" d="M277.75,302.18a3.36,3.36,0,0,1,3.46-3.62,2.41,2.41,0,0,1,2,1v-3.87H285v11.84h-1.77v-.83a2.41,2.41,0,0,1-2,1,3.36,3.36,0,0,1-3.46-3.62Zm1.77,1.87a1.69,1.69,0,0,0,1.74,1.93,1.81,1.81,0,0,0,2-1.93v-1.83a1.87,1.87,0,1,0-3.73,0Z"></path>
      <path class="cls-1" d="M492,71.41a.79.79,0,0,1-.8-.8v-2.8a.79.79,0,0,1,.8-.8.74.74,0,0,1,.8.8v2.8A.74.74,0,0,1,492,71.41Z"></path>
      <path class="cls-1" d="M345.17,300.29H347v11.89h-1.82v-5.1h-4.89v5.1h-1.82V300.29h1.82v5h4.89Z"></path>
      <path class="cls-1" d="M352.45,314.21c-.25.73-.88,1.1-1.94,1.1h-.92V313.6H350c.87,0,.9-.16,1.19-.89l.24-.65-3.13-8.65h1.86l2.19,6.24,2.19-6.24h1.85Z"></path>
      <path class="cls-1" d="M364.83,308.72a3.38,3.38,0,0,1-3.49,3.63,2.41,2.41,0,0,1-2-1v4h-1.78v-11.9h1.78v.77a2.41,2.41,0,0,1,2-1,3.38,3.38,0,0,1,3.49,3.63ZM363,306.85a1.87,1.87,0,1,0-3.74,0v1.83a1.87,1.87,0,1,0,3.74,0Z"></path>
      <path class="cls-1" d="M372.14,309.4H374a3.67,3.67,0,0,1-7.26-.68v-1.91a3.66,3.66,0,0,1,7.31,0v1.58h-5.53v.29a1.75,1.75,0,0,0,1.87,2A1.7,1.7,0,0,0,372.14,309.4Zm-3.66-2.6h3.74a1.87,1.87,0,1,0-3.74,0Z"></path>
      <path class="cls-1" d="M379.68,305a1.73,1.73,0,0,0-1.87,1.94v5.25H376v-8.77h1.78v.85a2.42,2.42,0,0,1,2-1h.68V305Z"></path>
      <path class="cls-1" d="M383.65,309.63c0,.65.11.84.81.84h.27v1.71H384a1.83,1.83,0,0,1-2.09-2.09v-9.8h1.79Z"></path>
      <path class="cls-1" d="M388.3,302.1h-1.78v-1.81h1.78Zm0,10.08h-1.78v-8.77h1.78Z"></path>
      <path class="cls-1" d="M392.43,312.18h-1.78v-8.77h1.78v.77a2.42,2.42,0,0,1,2-1,3.37,3.37,0,0,1,3.49,3.63v5.37h-1.79v-5.33a1.87,1.87,0,1,0-3.74,0Z"></path>
      <path class="cls-1" d="M402,307l3.28-3.57h2.16l-3.16,3.44,3.64,5.33h-2.08l-2.75-4L402,309.33v2.85h-1.78V300.29H402Z"></path>
      <path class="cls-1" d="M408.4,309.38h1.83c.14.87,1,1.26,1.92,1.26.79,0,1.45-.21,1.45-.92s-.53-.78-1.11-.92l-1.66-.42a2.54,2.54,0,0,1-2.23-2.62c0-1.74,1.4-2.58,3.18-2.58s3.2.84,3.37,2.8h-1.87c-.14-.76-.8-1.09-1.62-1.09-.54,0-1.26.21-1.26.9,0,.53.51.7,1,.82L413,307c1.6.41,2.4,1.08,2.4,2.75s-1.36,2.58-3.26,2.58S408.5,311.39,408.4,309.38Z"></path>
      <path class="cls-1" d="M340.66,332.58h-1.82V320.69h4.52a3.89,3.89,0,1,1,0,7.78h-2.7Zm0-10.13v4.22h2.7a2.11,2.11,0,1,0,0-4.22Z"></path>
      <path class="cls-1" d="M352.6,325.39a1.73,1.73,0,0,0-1.87,1.94v5.25h-1.79v-8.77h1.79v.85a2.4,2.4,0,0,1,2-1h.68v1.73Z"></path>
      <path class="cls-1" d="M354.53,327.21a3.66,3.66,0,0,1,7.31,0v1.91a3.66,3.66,0,0,1-7.31,0Zm5.53,0a1.87,1.87,0,1,0-3.74,0v1.83a1.87,1.87,0,1,0,3.74,0Z"></path>
      <path class="cls-1" d="M367.37,332.75a3.38,3.38,0,0,1-3.66-3.63v-1.91a3.67,3.67,0,0,1,7.3-.47h-1.82a1.68,1.68,0,0,0-1.82-1.45,1.74,1.74,0,0,0-1.87,2v1.83a1.74,1.74,0,0,0,1.87,2,1.69,1.69,0,0,0,1.83-1.45H371A3.36,3.36,0,0,1,367.37,332.75Z"></path>
      <path class="cls-1" d="M378.15,329.8H380a3.33,3.33,0,0,1-3.6,2.95,3.37,3.37,0,0,1-3.65-3.63v-1.91a3.66,3.66,0,0,1,7.31,0v1.58h-5.53v.29a1.75,1.75,0,0,0,1.87,2A1.7,1.7,0,0,0,378.15,329.8Zm-3.66-2.6h3.74a1.87,1.87,0,1,0-3.74,0Z"></path>
      <path class="cls-1" d="M381.43,329.78h1.83c.14.87,1,1.26,1.92,1.26.79,0,1.45-.21,1.45-.92s-.53-.78-1.11-.92l-1.66-.42a2.54,2.54,0,0,1-2.23-2.62c0-1.73,1.39-2.59,3.18-2.59s3.19.86,3.36,2.81h-1.86c-.14-.77-.8-1.09-1.62-1.09-.54,0-1.26.21-1.26.9,0,.53.51.7,1,.82l1.61.41c1.6.4,2.4,1.08,2.4,2.75s-1.36,2.58-3.26,2.58S381.53,331.79,381.43,329.78Z"></path>
      <path class="cls-1" d="M389.5,329.78h1.84c.13.87,1,1.26,1.92,1.26.78,0,1.44-.21,1.44-.92s-.52-.78-1.1-.92l-1.67-.42a2.54,2.54,0,0,1-2.22-2.62c0-1.73,1.39-2.59,3.17-2.59s3.2.86,3.37,2.81h-1.87c-.13-.77-.8-1.09-1.61-1.09-.55,0-1.26.21-1.26.9,0,.53.51.7,1,.82l1.62.41c1.6.4,2.4,1.08,2.4,2.75s-1.36,2.58-3.27,2.58S389.6,331.79,389.5,329.78Z"></path>
      <path class="cls-1" d="M403.51,329.8h1.82a3.34,3.34,0,0,1-3.61,2.95,3.37,3.37,0,0,1-3.65-3.63v-1.91a3.66,3.66,0,0,1,7.31,0v1.58h-5.53v.29a1.75,1.75,0,0,0,1.87,2A1.7,1.7,0,0,0,403.51,329.8Zm-3.66-2.6h3.74a1.87,1.87,0,1,0-3.74,0Z"></path>
      <path class="cls-1" d="M407.17,327.21a3.38,3.38,0,0,1,3.48-3.64,2.41,2.41,0,0,1,2,1v-3.89h1.78v11.89h-1.78v-.83a2.41,2.41,0,0,1-2,1,3.37,3.37,0,0,1-3.48-3.63Zm1.78,1.87A1.7,1.7,0,0,0,410.7,331a1.81,1.81,0,0,0,2-1.94v-1.83a1.87,1.87,0,1,0-3.74,0Z"></path>
      <path class="cls-1" d="M633.83,175.67h1.85a2.38,2.38,0,0,0,2.55,2.05c1.22,0,2-.59,2-1.51s-.49-1.42-1.67-1.71l-2.1-.5a3.16,3.16,0,0,1-2.44-3.32c0-2.28,1.73-3.35,3.83-3.35a3.73,3.73,0,0,1,4,3.33H640a2,2,0,0,0-2.18-1.54c-1.4,0-2,.66-2,1.56a1.52,1.52,0,0,0,1.33,1.57l2,.49a3.32,3.32,0,0,1,2.85,3.51c0,1.91-1.41,3.26-3.88,3.26A4,4,0,0,1,633.83,175.67Z"></path>
      <path class="cls-1" d="M647.29,179.51a3.36,3.36,0,0,1-3.64-3.62V174a3.65,3.65,0,0,1,7.26-.48H649.1a1.68,1.68,0,0,0-1.81-1.44,1.74,1.74,0,0,0-1.87,1.95v1.83a1.73,1.73,0,0,0,1.87,1.94,1.68,1.68,0,0,0,1.82-1.43h1.8A3.35,3.35,0,0,1,647.29,179.51Z"></path>
      <path class="cls-1" d="M656.47,172.19a1.72,1.72,0,0,0-1.86,1.93v5.22h-1.78v-8.73h1.78v.85a2.4,2.4,0,0,1,2-1h.68v1.73Z"></path>
      <path class="cls-1" d="M660.45,169.31h-1.78V167.5h1.78Zm0,10h-1.78v-8.73h1.78Z"></path>
      <path class="cls-1" d="M670.06,175.89a3.36,3.36,0,0,1-3.47,3.62,2.41,2.41,0,0,1-2-1v3.94h-1.78V170.61h1.78v.76a2.41,2.41,0,0,1,2-1,3.36,3.36,0,0,1,3.47,3.62ZM668.28,174a1.86,1.86,0,1,0-3.72,0v1.83a1.86,1.86,0,1,0,3.72,0Z"></path>
      <path class="cls-1" d="M674.34,176.81c0,.64.12.83.81.83h1.34v1.7h-1.85a1.82,1.82,0,0,1-2.08-2.08v-5h-1.23v-1.68h1.23v-2h1.78v2h2.15v1.68h-2.15Z"></path>
      <path class="cls-1" d="M677.62,176.55h1.83c.13.87,1,1.25,1.91,1.25.78,0,1.44-.2,1.44-.91s-.53-.78-1.1-.91l-1.66-.43a2.52,2.52,0,0,1-2.22-2.6c0-1.73,1.39-2.57,3.17-2.57s3.18.84,3.35,2.79h-1.86c-.14-.76-.8-1.09-1.61-1.09-.54,0-1.25.21-1.25.9,0,.53.5.7,1,.81l1.61.41c1.59.41,2.38,1.08,2.38,2.74s-1.35,2.57-3.25,2.57S677.72,178.55,677.62,176.55Z"></path>
      <path class="cls-1" d="M627.68,194.55v5.1h-1.81V187.8h4.65c2.35,0,3.64,1.34,3.64,3.39a3.08,3.08,0,0,1-2.66,3.28l3,5.18h-2l-3-5.1Zm2.84-5h-2.84v3.21h2.84c1.1,0,1.79-.57,1.79-1.61S631.62,189.6,630.52,189.6Z"></path>
      <path class="cls-1" d="M641,196.87h1.81a3.34,3.34,0,0,1-3.59,2.95,3.38,3.38,0,0,1-3.64-3.63V194.3a3.64,3.64,0,0,1,7.28,0v1.57h-5.5v.29a1.74,1.74,0,0,0,1.86,2A1.69,1.69,0,0,0,641,196.87Zm-3.64-2.59v0h3.72v0a1.73,1.73,0,0,0-1.86-1.89A1.71,1.71,0,0,0,637.39,194.28Z"></path>
      <path class="cls-1" d="M652,199.65h-1.78v-5.32a1.78,1.78,0,1,0-3.55,0v5.32H644.9v-8.73h1.78v.76a2.36,2.36,0,0,1,1.94-1,3.19,3.19,0,0,1,2.51,1.23,3.31,3.31,0,0,1,2.65-1.23,3.38,3.38,0,0,1,3.56,3.62v5.35h-1.78v-5.32a1.78,1.78,0,1,0-3.55,0Z"></path>
      <path class="cls-1" d="M659.31,194.3a3.64,3.64,0,0,1,7.28,0v1.89a3.64,3.64,0,0,1-7.28,0Zm5.5,0a1.86,1.86,0,1,0-3.72,0v1.83a1.86,1.86,0,1,0,3.72,0Z"></path>
      <path class="cls-1" d="M673.7,190.92h1.84l-3.15,8.73h-1.76l-3.14-8.73h1.84l2.18,6.21Z"></path>
      <path class="cls-1" d="M681.85,196.87h1.81a3.33,3.33,0,0,1-3.58,2.95,3.37,3.37,0,0,1-3.64-3.63V194.3a3.64,3.64,0,0,1,7.27,0v1.57h-5.5v.29a1.74,1.74,0,0,0,1.87,2A1.68,1.68,0,0,0,681.85,196.87Zm-3.64-2.59v0h3.73v0a1.87,1.87,0,1,0-3.73,0Z"></path>
      <path class="cls-1" d="M685.49,194.3a3.36,3.36,0,0,1,3.47-3.62,2.4,2.4,0,0,1,2,1V187.8h1.77v11.85H691v-.83a2.4,2.4,0,0,1-2,1,3.36,3.36,0,0,1-3.47-3.63Zm1.77,1.86a1.7,1.7,0,0,0,1.75,1.93,1.81,1.81,0,0,0,2-1.93v-1.83a1.87,1.87,0,1,0-3.73,0Z"></path>
    </g>
  </g>
</svg>
